<svg width="69" height="72" viewBox="0 0 69 72" fill="none" xmlns="http://www.w3.org/2000/svg">
<path d="M57.5 54H51.75V27.75L34.5 39L17.25 27.75V54H11.5V18H14.95L34.5 30.75L54.05 18H57.5M57.5 12H11.5C8.30875 12 5.75 14.67 5.75 18V54C5.75 55.5913 6.3558 57.1174 7.43414 58.2426C8.51247 59.3679 9.97501 60 11.5 60H57.5C59.025 60 60.4875 59.3679 61.5659 58.2426C62.6442 57.1174 63.25 55.5913 63.25 54V18C63.25 16.4087 62.6442 14.8826 61.5659 13.7574C60.4875 12.6321 59.025 12 57.5 12Z" fill="#224E3F"/>
</svg>
